# xmcd
#
# Track frame offsets: 
#        150
#        13381
#        27483
#        40836
#        59930
#        81584
#        92415
#        110721
#        122426
#        148048
#        159878
#        179023
#        189944
#        206961
#
# Disc length: 2997 seconds
#
# Revision: 0
# Processed by: cddbd v1.5.2PL0 Copyright (c) Steve Scherf et al.
# Submitted via: ExactAudioCopy v0.99pb5
#
DISCID=ce0bb30e
DTITLE=The Calamity Cubes - Long Cold Winter
DYEAR=2009
DGENRE=Bluegrass
TTITLE0=Wrong Place to Hide
TTITLE1=Carney Love Song
TTITLE2=Skateboard Hips
TTITLE3=Delia Rose
TTITLE4=Bear vs Scientist
TTITLE5=Greatest Thing
TTITLE6=Kite
TTITLE7=Eternal Fall
TTITLE8=Battle of Hair Ribbon
TTITLE9=Shame
TTITLE10=Dead As Dead
TTITLE11=Ace in the Wall
TTITLE12=Can't Win For Losing
TTITLE13=Gold Light
EXTD=
EXTT0=
EXTT1=
EXTT2=
EXTT3=
EXTT4=
EXTT5=
EXTT6=
EXTT7=
EXTT8=
EXTT9=
EXTT10=
EXTT11=
EXTT12=
EXTT13=
PLAYORDER=
